<svg width="484" height="265" viewBox="0 0 484 265" fill="none" xmlns="http://www.w3.org/2000/svg">
<path d="M64.8148 155.864C65.2263 154.167 65.5864 152.932 65.8951 152.161C66.2037 151.389 66.8724 150.874 67.9012 150.617L87.8858 145.911C88.5031 145.705 89.1718 145.602 89.892 145.602C90.5607 145.602 91.0494 145.833 91.358 146.296C91.6667 146.759 91.821 147.634 91.821 148.92C91.5123 150.154 91.2551 152.058 91.0494 154.63C90.8436 157.15 90.6893 159.928 90.5864 162.963C90.4835 165.998 90.4064 169.059 90.3549 172.145C90.3035 175.18 90.2778 177.829 90.2778 180.093V184.336C90.2778 187.526 90.252 190.998 90.2006 194.753C90.1492 198.508 90.072 202.315 89.9691 206.173C89.9177 210.031 89.8405 213.837 89.7377 217.593C89.6348 221.348 89.5319 224.871 89.429 228.164L88.966 241.358C88.9146 241.615 88.8889 241.847 88.8889 242.052C88.8889 242.258 88.8889 242.464 88.8889 242.67V243.827C88.8889 244.702 88.8889 245.448 88.8889 246.065C88.9403 246.631 88.966 247.145 88.966 247.608C88.966 248.122 88.9146 248.585 88.8117 248.997C88.7603 249.408 88.5802 249.82 88.2716 250.231C87.963 250.592 87.5257 250.977 86.9599 251.389C86.4455 251.8 85.7253 252.315 84.7994 252.932C84.285 253.292 83.4362 253.832 82.2531 254.552C81.07 255.221 79.7582 255.993 78.3179 256.867C76.8776 257.742 75.3858 258.642 73.8426 259.568C72.2994 260.494 70.8848 261.317 69.5988 262.037C68.3127 262.809 67.2582 263.426 66.4352 263.889C65.6636 264.352 65.2778 264.583 65.2778 264.583L29.4753 209.491L26.2346 254.63C26.1831 255.041 26.0802 255.478 25.9259 255.941C25.823 256.404 25.4887 256.764 24.9228 257.022C24.4599 257.227 23.6625 257.562 22.5309 258.025C21.3992 258.436 20.0617 258.925 18.5185 259.491C17.0267 260.057 15.4321 260.622 13.7346 261.188C12.0885 261.806 10.5195 262.346 9.02777 262.809C7.536 263.323 6.19855 263.735 5.01543 264.043C3.88374 264.352 3.11213 264.506 2.70061 264.506C1.929 264.506 1.28601 264.3 0.771606 263.889C0.257203 263.477 0 262.731 0 261.651C0.514403 255.221 1.10596 248.225 1.77469 240.664C2.44341 233.05 3.08642 225.257 3.7037 217.284C4.32099 209.311 4.88683 201.363 5.40123 193.441C5.96707 185.468 6.43003 177.906 6.79012 170.756C6.79012 170.55 6.45576 169.882 5.78703 168.75C5.16975 167.567 4.44959 166.307 3.62654 164.969C2.85494 163.58 2.13477 162.294 1.46605 161.111C0.848765 159.877 0.540115 159.105 0.540115 158.796C0.540115 158.436 0.720164 158.102 1.08025 157.793C1.49177 157.485 2.13478 157.073 3.00926 156.559L23.6111 144.907C23.7654 144.907 23.9712 144.882 24.2284 144.83C24.537 144.779 24.7942 144.753 25 144.753C25.5658 144.753 26.0031 144.83 26.3117 144.985C26.6718 145.087 27.0319 145.473 27.392 146.142L64.8148 213.657V155.864Z" fill="#EFB752"/>
<path d="M184.568 249.691C184.414 251.389 184.208 252.572 183.951 253.241C183.693 253.858 183.128 254.27 182.253 254.475C177.881 255.71 173.302 256.97 168.519 258.256C163.786 259.491 159.182 261.137 154.707 263.194C154.552 263.246 154.321 263.272 154.012 263.272C153.601 263.272 153.344 263.169 153.241 262.963C153.189 262.757 153.164 262.526 153.164 262.268C153.164 262.166 153.164 261.986 153.164 261.728C153.215 261.471 153.292 260.982 153.395 260.262C153.498 259.594 153.627 258.642 153.781 257.407C153.987 256.173 154.244 254.527 154.552 252.469C148.791 256.224 143.673 258.951 139.198 260.648C134.774 262.397 130.838 263.272 127.392 263.272C118.801 263.272 112.526 261.214 108.565 257.099C104.655 252.932 102.701 246.734 102.701 238.503C102.701 237.011 102.726 235.494 102.778 233.951C102.829 232.356 102.984 230.736 103.241 229.09C103.807 223.02 104.295 217.824 104.707 213.503C105.118 209.131 105.453 205.427 105.71 202.392C105.967 199.357 106.173 196.888 106.327 194.985C106.533 193.03 106.687 191.409 106.79 190.123C106.944 188.837 107.047 187.783 107.099 186.96C107.202 186.085 107.305 185.237 107.407 184.414C107.613 182.767 107.793 181.61 107.948 180.941C108.153 180.273 108.745 179.835 109.722 179.63C112.14 179.167 114.429 178.755 116.589 178.395C118.801 177.984 120.962 177.572 123.071 177.161C125.231 176.698 127.418 176.209 129.63 175.694C131.842 175.18 134.182 174.563 136.651 173.843C136.754 173.843 136.857 173.843 136.96 173.843C137.063 173.791 137.166 173.765 137.269 173.765C137.886 173.765 138.194 173.971 138.194 174.383V174.537C137.989 176.286 137.809 177.932 137.654 179.475C137.5 181.019 137.346 182.613 137.191 184.259C137.037 185.854 136.857 187.577 136.651 189.429C136.497 191.281 136.291 193.441 136.034 195.911C135.777 198.328 135.468 201.132 135.108 204.321C134.748 207.51 134.311 211.214 133.796 215.432C133.488 218.519 133.179 221.605 132.87 224.691C132.562 227.726 132.407 230.556 132.407 233.179C132.407 234.619 132.51 235.957 132.716 237.191C132.922 238.374 133.282 239.403 133.796 240.278C134.362 241.101 135.082 241.744 135.957 242.207C136.831 242.67 137.963 242.901 139.352 242.901C140.432 242.901 141.898 242.67 143.75 242.207C145.602 241.692 147.454 240.844 149.306 239.661C151.157 238.426 152.778 236.831 154.167 234.877C155.607 232.87 156.43 230.35 156.636 227.315C156.996 222.222 157.305 217.978 157.562 214.583C157.87 211.137 158.128 208.256 158.333 205.941C158.539 203.575 158.719 201.595 158.873 200C159.028 198.405 159.156 196.888 159.259 195.448C159.414 193.956 159.542 192.387 159.645 190.741C159.748 189.043 159.851 186.934 159.954 184.414C160.108 182.716 160.288 181.559 160.494 180.941C160.751 180.273 161.343 179.835 162.269 179.63C166.95 178.704 171.734 177.778 176.62 176.852C181.507 175.874 186.291 174.64 190.972 173.148C191.384 173.148 191.615 173.225 191.667 173.38C191.77 173.483 191.821 173.663 191.821 173.92L184.568 249.691Z" fill="#EFB752"/>
<path d="M243.364 199.769C242.644 205.17 241.95 210.571 241.281 215.972C240.664 221.322 240.278 226.337 240.123 231.019C240.123 233.025 240.278 234.697 240.586 236.034C240.895 237.371 241.332 238.426 241.898 239.198C242.515 239.969 243.236 240.535 244.059 240.895C244.882 241.204 245.808 241.358 246.836 241.358C248.483 241.358 250.283 241.127 252.238 240.664C254.192 240.149 256.147 239.506 258.102 238.735C258.719 238.477 259.234 238.297 259.645 238.194C260.108 238.04 260.494 237.963 260.802 237.963C261.317 237.963 261.651 238.194 261.806 238.657C262.011 239.12 262.191 239.943 262.346 241.127C262.551 242.258 262.834 243.801 263.194 245.756C263.555 247.711 264.146 250.18 264.969 253.164C265.021 253.421 265.046 253.652 265.046 253.858C265.098 254.012 265.123 254.167 265.123 254.321C265.123 255.041 264.841 255.556 264.275 255.864C263.76 256.173 262.886 256.533 261.651 256.944C259.542 257.665 257.305 258.41 254.938 259.182C252.623 259.902 250.309 260.571 247.994 261.188C245.73 261.806 243.544 262.294 241.435 262.654C239.326 263.066 237.474 263.272 235.88 263.272C227.289 263.272 221.013 261.137 217.052 256.867C213.143 252.598 211.188 246.091 211.188 237.346C211.188 235.854 211.24 234.336 211.343 232.793C211.445 231.199 211.574 229.552 211.728 227.855C212.243 222.711 212.68 217.85 213.04 213.272C213.452 208.642 213.863 204.218 214.275 200H206.173C203.395 200 201.389 199.897 200.154 199.691C198.92 199.434 198.302 198.945 198.302 198.225C198.302 198.02 198.56 197.479 199.074 196.605C199.588 195.679 200.231 194.599 201.003 193.364C201.826 192.078 202.701 190.715 203.627 189.275C204.552 187.834 205.427 186.497 206.25 185.262C207.124 183.976 207.87 182.87 208.488 181.944C209.105 181.019 209.491 180.453 209.645 180.247H215.123C215.586 176.337 215.946 173.071 216.204 170.448C216.512 167.773 216.744 165.561 216.898 163.812C217.104 162.063 217.284 160.725 217.438 159.799C217.593 158.822 217.747 158.102 217.901 157.639C218.107 157.176 218.338 156.893 218.596 156.79C218.904 156.636 219.29 156.507 219.753 156.404C222.068 155.941 224.306 155.53 226.466 155.17C228.627 154.758 230.787 154.347 232.948 153.935C235.108 153.524 237.294 153.061 239.506 152.546C241.77 151.98 244.11 151.337 246.528 150.617C246.682 150.617 246.785 150.617 246.836 150.617C246.888 150.566 246.991 150.54 247.145 150.54C247.762 150.54 248.071 150.746 248.071 151.157V151.312C247.814 154.141 247.402 158.076 246.836 163.117C246.322 168.158 245.73 173.868 245.062 180.247H265.741C266.152 180.247 266.538 180.401 266.898 180.71C267.31 180.967 267.515 181.43 267.515 182.099C267.515 182.356 267.207 183.282 266.589 184.877C265.972 186.471 265.098 188.555 263.966 191.127L261.188 197.377C260.828 198.148 260.442 198.714 260.031 199.074C259.671 199.434 258.899 199.666 257.716 199.769H243.364Z" fill="#EFB752"/>
<path d="M274.228 237.963C274.228 237.912 274.203 237.886 274.151 237.886C274.151 237.834 274.151 237.783 274.151 237.731C274.151 237.063 274.511 236.728 275.231 236.728C275.694 236.728 276.106 236.908 276.466 237.269C278.524 239.223 280.864 240.818 283.488 242.052C286.163 243.287 289.043 243.904 292.13 243.904C292.953 243.904 293.904 243.827 294.985 243.673C296.065 243.467 297.094 243.158 298.071 242.747C299.048 242.335 299.846 241.795 300.463 241.127C301.132 240.406 301.466 239.532 301.466 238.503C301.466 237.371 301.183 236.343 300.617 235.417C300.051 234.439 299.306 233.642 298.38 233.025C297.865 232.665 296.965 232.047 295.679 231.173C294.393 230.247 293.004 229.27 291.512 228.241C290.072 227.212 288.683 226.235 287.346 225.309C286.06 224.383 285.159 223.714 284.645 223.302C282.33 221.554 280.478 219.779 279.089 217.978C277.752 216.178 276.723 214.326 276.003 212.423C275.283 210.468 274.82 208.436 274.614 206.327C274.408 204.218 274.306 201.98 274.306 199.614C274.306 196.013 275.257 192.618 277.16 189.429C279.064 186.24 281.559 183.436 284.645 181.019C287.783 178.601 291.332 176.698 295.293 175.309C299.254 173.868 303.292 173.148 307.407 173.148C310.802 173.148 314.146 173.663 317.438 174.691C320.73 175.72 323.791 177.469 326.62 179.938C326.878 183.179 327.058 186.368 327.16 189.506C327.263 192.644 327.418 195.936 327.623 199.383C327.623 200.051 327.469 200.514 327.16 200.772C326.852 200.977 326.492 201.08 326.08 201.08C325.72 201.08 325.411 200.952 325.154 200.694C323.971 199.563 322.762 198.457 321.528 197.377C320.293 196.245 318.981 195.267 317.593 194.444C316.255 193.57 314.815 192.876 313.272 192.361C311.728 191.795 310.082 191.512 308.333 191.512C307.253 191.512 306.173 191.615 305.093 191.821C304.012 191.975 303.035 192.31 302.16 192.824C301.286 193.287 300.566 193.93 300 194.753C299.486 195.576 299.228 196.631 299.228 197.917C299.228 199.408 299.408 200.694 299.768 201.775C300.129 202.855 300.977 203.909 302.315 204.938L316.667 214.661C319.29 216.461 321.399 218.236 322.994 219.985C324.64 221.682 325.926 223.38 326.852 225.077C327.778 226.775 328.395 228.472 328.704 230.17C329.064 231.816 329.244 233.462 329.244 235.108C329.244 239.738 328.164 243.827 326.003 247.377C323.894 250.874 321.142 253.807 317.747 256.173C314.352 258.488 310.494 260.237 306.173 261.42C301.903 262.654 297.608 263.272 293.287 263.272C289.995 263.272 286.806 262.912 283.719 262.191C280.684 261.523 277.855 260.468 275.231 259.028L274.228 237.963Z" fill="#EFB752"/>
<path d="M404.398 262.037C403.832 262.191 403.086 262.423 402.16 262.731C401.235 263.092 400.334 263.272 399.46 263.272C398.74 263.272 398.097 263.092 397.531 262.731C397.016 262.371 396.759 261.754 396.759 260.88V260.417C397.068 257.639 397.325 255.298 397.531 253.395C397.737 251.44 397.917 249.691 398.071 248.148C398.277 246.553 398.431 244.985 398.534 243.441C398.688 241.847 398.868 240.021 399.074 237.963C399.28 235.854 399.511 233.385 399.768 230.556C400.077 227.675 400.437 224.1 400.849 219.83C401.106 217.207 401.337 214.532 401.543 211.806C401.749 209.079 401.852 206.559 401.852 204.244C401.852 202.701 401.723 201.286 401.466 200C401.26 198.663 400.849 197.531 400.231 196.605C399.666 195.628 398.868 194.882 397.839 194.367C396.811 193.853 395.499 193.596 393.904 193.596C392.721 193.596 391.075 193.853 388.966 194.367C386.908 194.882 384.851 195.73 382.793 196.914C380.736 198.097 378.909 199.666 377.315 201.62C375.72 203.524 374.82 205.89 374.614 208.719C374.306 212.526 374.023 215.792 373.765 218.519C373.508 221.193 373.277 223.483 373.071 225.386C372.865 227.238 372.685 228.755 372.531 229.938C372.428 231.121 372.351 232.124 372.299 232.948C372.248 233.153 372.171 233.719 372.068 234.645C371.965 235.571 371.836 236.677 371.682 237.963C371.579 239.249 371.451 240.612 371.296 242.052C371.193 243.493 371.065 244.856 370.91 246.142C370.808 247.428 370.705 248.534 370.602 249.46C370.55 250.386 370.525 250.952 370.525 251.157C370.525 251.569 370.525 251.929 370.525 252.238C370.576 252.495 370.602 252.752 370.602 253.009C370.602 253.421 370.396 253.781 369.985 254.09C369.624 254.347 368.776 254.655 367.438 255.015L346.991 262.037C346.425 262.243 345.679 262.5 344.753 262.809C343.827 263.117 342.927 263.272 342.052 263.272C341.332 263.272 340.689 263.092 340.123 262.731C339.609 262.371 339.352 261.754 339.352 260.88L346.373 182.022C346.528 180.324 346.708 179.167 346.914 178.549C347.171 177.881 347.762 177.443 348.688 177.238C353.369 176.312 358.179 175.386 363.117 174.46C368.056 173.483 372.865 172.248 377.546 170.756C377.958 170.756 378.189 170.833 378.241 170.988C378.344 171.091 378.395 171.271 378.395 171.528C378.395 171.631 378.369 171.785 378.318 171.991C378.318 172.196 378.241 172.659 378.086 173.38C377.983 174.1 377.803 175.206 377.546 176.698C377.341 178.138 377.032 180.17 376.62 182.793C380.17 180.736 383.488 179.09 386.574 177.855C389.712 176.569 392.644 175.592 395.37 174.923C398.148 174.203 400.746 173.74 403.164 173.534C405.581 173.277 407.845 173.148 409.954 173.148C417.207 173.148 422.479 175.36 425.772 179.784C429.064 184.156 430.71 190.741 430.71 199.537C430.71 200.772 430.684 202.058 430.633 203.395C430.581 204.681 430.478 206.019 430.324 207.407L426.775 240.586C426.517 242.747 426.363 244.753 426.312 246.605C426.26 248.405 426.235 250.514 426.235 252.932C426.235 253.344 426.235 253.704 426.235 254.012C426.286 254.27 426.312 254.501 426.312 254.707C426.312 255.17 426.106 255.53 425.694 255.787C425.334 256.044 424.486 256.379 423.148 256.79L404.398 262.037Z" fill="#EFB752"/>
<path d="M447.685 193.981C448.302 186.934 448.791 179.964 449.151 173.071C449.563 166.178 450 159.105 450.463 151.852C450.566 150.154 450.72 148.997 450.926 148.38C451.183 147.711 451.775 147.274 452.701 147.068C457.485 146.193 462.268 145.319 467.052 144.444C471.888 143.519 476.723 142.31 481.559 140.818C481.713 140.766 481.944 140.741 482.253 140.741C482.819 140.741 483.102 140.998 483.102 141.512L473.071 251.698V253.009C473.071 253.472 472.891 253.858 472.531 254.167C472.171 254.424 471.322 254.733 469.985 255.093L449.768 262.5C449.203 262.757 448.457 263.014 447.531 263.272C446.605 263.58 445.705 263.735 444.83 263.735C444.11 263.735 443.467 263.555 442.901 263.194C442.387 262.834 442.13 262.217 442.13 261.343V260.88C442.541 255.684 442.927 250.617 443.287 245.679C443.699 240.689 444.11 235.545 444.522 230.247C444.985 224.949 445.473 219.342 445.988 213.426C446.502 207.51 447.068 201.029 447.685 193.981Z" fill="#EFB752"/>
<path fill-rule="evenodd" clip-rule="evenodd" d="M226.933 2.27589C214.065 6.66329 209.438 10.8968 213.315 14.7368C214.076 15.4902 214.419 16.3836 214.076 16.7227C213.734 17.0618 210.54 14.5666 206.978 11.1768C199.645 4.19936 194.664 2.25736 184.098 2.25736C175.95 2.25736 171.84 3.75726 169.247 7.6771C166.152 12.3538 169.02 13.8306 181.191 13.8306C194.434 13.8306 198.218 15.5723 207.259 25.8239C207.709 26.3344 207.067 27.0703 206.5 26.6939L204.567 25.4107C199.322 21.9283 198.816 21.8091 196.838 23.581C191.344 28.5054 183.887 47.7273 183.887 56.9662C183.887 64.6369 187.295 69.9652 192.651 70.6642C193.294 70.7475 195.072 71.288 196.603 71.8644C200.212 73.2231 203.445 72.1629 204.356 69.3229C204.808 67.9133 206.13 67.0673 207.88 67.0673C209.422 67.0673 211.207 66.094 211.85 64.9054C212.493 63.7168 214.601 62.4299 216.535 62.0468C219.026 61.5538 220.267 60.4972 220.793 58.4221C221.201 56.8123 222.228 55.4941 223.077 55.4941C223.924 55.4941 225.587 54.2743 226.769 52.7848C227.953 51.2942 230.095 49.4529 231.529 48.6937C232.963 47.9333 234.136 46.7737 234.136 46.1175C234.136 45.4601 237.292 41.9488 241.148 38.3148C245.004 34.6808 248.159 30.8096 248.159 29.7124C248.159 28.6165 248.938 27.7184 249.89 27.7184C250.841 27.7184 251.98 26.3042 252.418 24.574C252.856 22.8449 254.216 20.3717 255.442 19.0767C257.251 17.166 257.523 15.7448 256.89 11.5159C255.879 4.77224 254.528 2.39857 250.934 1.0445C246.131 -0.763228 234.03 -0.142909 226.933 2.27589ZM248.529 5.88557C249.932 6.60889 251.214 7.3056 251.378 7.43406C251.541 7.56252 250.861 9.28347 249.867 11.259C247.639 15.6811 241.302 22.7107 225.502 38.2859C207.406 56.1248 203.753 59.5274 203.753 58.5425C203.753 58.0518 212.954 48.2747 224.202 36.8149C235.449 25.3563 244.961 14.7564 245.34 13.2612C246.433 8.94669 245.454 6.47234 242.311 5.60667C239.407 4.8058 239.408 4.80233 242.686 4.68775C244.495 4.6241 247.124 5.1634 248.529 5.88557ZM159.25 12.421C149.559 22.3021 146.397 29.9706 146.374 43.6455C146.358 53.2269 147.624 59.0135 153.511 76.261C156.033 83.6505 157.038 88.4314 156.614 91.0192C156.023 94.6289 156.128 94.7724 158.471 93.5306C163.107 91.0736 172.373 81.6472 174.769 76.9508C176.339 73.8746 177.348 69.1076 177.72 63.0166C178.201 55.1307 177.849 52.5568 175.335 45.6569C171.517 35.1762 169.397 29.5678 169.04 29.0007C168.555 28.2346 164.133 33.9448 163.311 36.3983C162.886 37.6713 162.005 39.052 161.354 39.4652C160.703 39.8795 159.913 45.511 159.599 51.9793C158.864 67.0858 156.796 65.7421 156.796 50.1577C156.796 42.9719 157.266 38.6285 158.071 38.3623C158.772 38.1308 159.346 37.1344 159.346 36.1495C159.346 34.189 163.943 26.2162 165.431 25.597C166.61 25.1063 166.658 6.87392 165.481 6.92369C164.999 6.94452 162.195 9.41771 159.25 12.421ZM259.101 22.7998C258.019 24.5508 255.904 27.833 254.4 30.0956C252.896 32.357 251.665 34.5315 251.665 34.9273C251.665 35.3232 245.042 42.193 236.946 50.1924C223.206 63.7701 213.487 71.6965 210.579 71.6965C209.897 71.6965 208.122 72.8574 206.633 74.2774C205.161 75.6813 205.162 78.0318 206.636 79.4344L211.858 84.4039C229.788 101.463 236.44 105.43 252.098 108.399C255.357 109.017 261.15 108.068 275.659 104.538C279.536 103.595 283.48 103.105 284.423 103.45C287.567 104.599 289.141 102.239 289.626 95.6554C289.889 92.0689 290.695 88.0414 291.416 86.707C292.137 85.3726 293.027 79.7017 293.393 74.1061C294.255 60.9277 291.926 53.2165 283.941 42.8191C277.551 34.4991 263.479 19.6172 262 19.6172C261.487 19.6172 260.183 21.0488 259.101 22.7998ZM269.864 34.373C278.41 43.3932 285.365 54.5323 287.482 62.5861C289.213 69.1794 289.243 70.758 287.749 77.4832C287.515 78.5386 285.965 78.3822 285.946 77.3012L285.939 76.9045C285.774 67.4006 283.227 60.9844 275.974 51.8127C273.297 48.4275 270.807 45.3826 270.442 45.047C270.078 44.7113 267.499 42.0425 264.711 39.1145C260.103 34.2735 259.785 33.571 261.194 31.3339C262.047 29.9821 263.175 28.8757 263.699 28.8757C264.225 28.8757 266.998 31.3501 269.864 34.373ZM200.362 42.4742C201.719 46.0006 200.732 55.4941 199.007 55.4941C198.403 55.4941 197.91 56.2869 197.91 57.2544C197.91 58.2231 196.586 59.613 194.969 60.3433C187.426 63.7458 186.384 49.5999 193.524 40.7383C195.566 38.2049 199.06 39.0926 200.362 42.4742ZM258.097 55.2048C268.047 66.9643 275.184 79.4657 274.781 84.4271C274.475 88.2011 274.155 88.502 270.086 88.8365C263.423 89.3827 251.092 82.1391 237.863 69.9085C235.083 67.3386 234.957 62.9868 237.583 60.2601L241.356 56.3424C246.062 51.4551 250.266 47.4426 250.7 47.4252C251.134 47.4067 254.463 50.9076 258.097 55.2048ZM223.946 80.6658C237.441 92.6418 242.237 95.9517 252.834 100.601C253.79 101.02 253.416 102.455 252.377 102.354L251.081 102.229C246.479 101.782 241.909 100.365 237.782 98.102C230.896 94.3245 231.34 94.6416 223.113 87.6155C214.416 80.1867 211.933 77.8616 211.933 77.1464C211.933 76.577 214.26 75.7113 216.887 75.3028C217.362 75.2287 220.539 77.6429 223.946 80.6658ZM197.91 85.2326C181.664 86.9593 162.373 93.1567 159.072 97.7096C156.314 101.514 161.193 107.95 167.911 109.371C169.949 109.802 172.142 110.545 172.785 111.021C174.725 112.459 189.556 115.465 202.584 117.063C218.385 119.001 263.868 119.004 279.712 117.069C303.178 114.203 320.035 109.096 323.383 103.839C325.461 100.577 323.224 96.5465 317.866 93.8962C311.663 90.8282 298.035 87.3493 295.698 88.2381C294.546 88.6756 293.862 91.3085 293.52 96.6287C292.949 105.498 291.23 107.573 284.454 107.573C282.167 107.573 276.614 108.4 272.116 109.41C247.025 115.042 232.777 110.426 211.98 89.9244C208.849 86.8389 205.437 84.5081 204.202 84.6123C202.991 84.7141 200.159 84.993 197.91 85.2326Z" fill="#EFB752"/>
</svg>
